# xmcd
#
# Track frame offsets: 
#        300
#        14394
#        42034
#        76013
#        102702
#        128975
#        156008
#        193562
#
# Disc length: 3088 seconds
#
# Revision: 0
# Processed by: cddbd v1.5.2PL0 Copyright (c) Steve Scherf et al.
# Submitted via: ExactAudioCopy v1.0b1
#
DISCID=5d0c0c08
DTITLE=Bernard Allison - Live At The Jazzhaus [Disc 1]
DYEAR=2011
DGENRE=Modern Electric Blues
TTITLE0=Send It In
TTITLE1=I Wouldn't Treat A Dog
TTITLE2=Rocket 88
TTITLE3=Tired Of Tryin
TTITLE4=So Devine
TTITLE5=Black and White
TTITLE6=Life Goes On
TTITLE7=Allison Way
EXTD=
EXTT0=
EXTT1=
EXTT2=
EXTT3=
EXTT4=
EXTT5=
EXTT6=
EXTT7=
PLAYORDER=
